<?xml version="1.0" standalone="no"?><!DOCTYPE svg PUBLIC "-//W3C//DTD SVG 1.1//EN" "http://www.w3.org/Graphics/SVG/1.1/DTD/svg11.dtd"><svg class="icon" height="512" viewBox="0 0 1024 1024" version="1.1" xmlns="http://www.w3.org/2000/svg"><path d="M512 62c-247.845 0-450 202.156-450 450s202.156 450 450 450 450-202.156 450-450-202.156-450-450-450zM710.133 667.7c30.229 30.256-12.15 72.714-42.433 42.433l-155.7-155.7-155.7 155.7c-30.229 30.229-72.714-12.124-42.433-42.433l155.7-155.7-155.7-155.7c-30.229-30.229 12.124-72.714 42.433-42.433l155.7 155.7 155.7-155.7c30.256-30.229 72.714 12.15 42.433 42.433l-155.7 155.7 155.7 155.7z" fill="#A8A8A8" /></svg>